<?xml version="1.0" encoding="UTF-8"?>
<svg version="1.1" xmlns="http://www.w3.org/2000/svg" width="3840" height="2160">
<path d="M0 0 C3.86121221 0.01139331 7.7221483 0.00460436 11.58335114 -0.0068922 C31.32797717 -0.05643729 50.92670904 0.60951409 70.62176514 2.01219177 C74.05648999 2.25523784 77.49192664 2.48060184 80.92822266 2.70019531 C166.14472039 8.2066006 251.99653752 26.88118105 352.25830078 62.14892578 C354.48452509 63.00955613 356.7132891 63.85467802 358.95458984 64.67480469 C382.91805038 73.45574176 407.05294991 82.91503326 429.76708984 94.59277344 C433.40167631 96.39320084 437.08934843 97.99023115 440.82177734 99.57324219 C449.3950197 103.23823538 457.56946293 107.58046012 465.77490234 111.99658203 C468.07554174 113.22927148 470.38406843 114.44540258 472.69677734 115.65527344 C480.03114583 119.4953884 487.26632611 123.43581713 494.39208984 127.65527344 C497.03126954 129.2004342 499.69518501 130.67948299 502.38427734 132.13574219 C512.7362477 137.75538324 522.9915755 143.44630492 532.94287109 149.75683594 C533.76061508 150.27460098 534.57835907 150.79236603 535.42088318 151.32582092 C543.76570071 156.63003361 552.01784164 162.07052715 560.24145508 167.56030273 C562.697064 169.19843342 565.15673988 170.83032582 567.61669922 172.46191406 C578.65024617 179.80306911 589.44251394 187.43160379 600.13427734 195.26074219 C601.11275635 195.97254639 602.09123535 196.68435059 603.09936523 197.41772461 C617.12163499 207.62473305 630.75460688 218.22596243 644.13427734 229.26074219 C646.00822562 230.80368709 647.88322823 232.34535235 649.75927734 233.88574219 C650.65517578 234.62179688 651.55107422 235.35785156 652.47412109 236.11621094 C655.77328133 238.77588637 659.14727946 241.32816757 662.55224609 243.85058594 C663.07431641 244.3159375 663.59638672 244.78128906 664.13427734 245.26074219 C664.13427734 245.92074219 664.13427734 246.58074219 664.13427734 247.26074219 C664.69630859 247.504375 665.25833984 247.74800781 665.83740234 247.99902344 C668.57447519 249.50255155 670.59223676 251.32773967 672.88427734 253.44824219 C675.89866349 256.21216184 678.91464955 258.96193198 682.00927734 261.63574219 C685.99401168 265.1031885 689.87675284 268.67941748 693.75585938 272.26391602 C696.57397757 274.86021696 699.43252821 277.38041532 702.38427734 279.82324219 C703.29177734 280.62761719 704.19927734 281.43199219 705.13427734 282.26074219 C705.13427734 282.92074219 705.13427734 283.58074219 705.13427734 284.26074219 C705.72621887 284.52802124 706.3181604 284.79530029 706.92803955 285.07067871 C709.16794175 286.27890105 710.63856282 287.5115115 712.43408203 289.30175781 C713.05442322 289.91579468 713.6747644 290.52983154 714.31390381 291.16247559 C714.97134583 291.82396606 715.62878784 292.48545654 716.30615234 293.16699219 C716.98856995 293.84749634 717.67098755 294.52800049 718.37408447 295.22912598 C719.81207162 296.66575416 721.24754427 298.10490303 722.68066406 299.54638672 C724.88304763 301.75950647 727.09592667 303.96172691 729.31005859 306.16308594 C730.70523188 307.55958022 732.09978496 308.95669446 733.49365234 310.35449219 C734.15919128 311.01598267 734.82473022 311.67747314 735.51043701 312.35900879 C736.42203583 313.28006409 736.42203583 313.28006409 737.35205078 314.21972656 C737.89069763 314.7599646 738.42934448 315.30020264 738.98431396 315.85681152 C740.13427734 317.26074219 740.13427734 317.26074219 740.13427734 319.26074219 C740.71048828 319.50050781 741.28669922 319.74027344 741.88037109 319.98730469 C744.59177691 321.51922548 746.15869616 323.28147271 748.19677734 325.63574219 C751.67234263 329.59800113 755.18486677 333.5131573 758.75927734 337.38574219 C762.9546278 341.95207105 767.08992193 346.56010192 771.13427734 351.26074219 C771.55789551 351.75268066 771.98151367 352.24461914 772.41796875 352.75146484 C775.48499192 356.31510377 778.54347131 359.88594563 781.59667969 363.46142578 C782.5880712 364.62156479 783.58050639 365.78081313 784.57421875 366.93896484 C790.67524204 374.05004881 796.57507711 381.28454787 802.32958984 388.67871094 C804.19752115 391.07538836 806.0876522 393.45132728 808.00146484 395.81152344 C836.55577013 431.03151755 862.12906562 469.22568304 885.13427734 508.26074219 C885.59495605 509.04175293 886.05563477 509.82276367 886.53027344 510.62744141 C888.67632899 514.26813986 890.81759655 517.91159331 892.95458984 521.55761719 C894.73972605 524.59896036 896.5545528 527.62096288 898.38427734 530.63574219 C904.33282305 540.53515445 909.5572871 550.84484066 914.83789062 561.11035156 C915.99737591 563.36262394 917.1614291 565.61249478 918.32568359 567.86230469 C922.48559067 575.92770038 926.49830779 584.04184802 930.32620239 592.27023315 C932.25436875 596.41170998 934.24142798 600.51297039 936.30615234 604.58886719 C939.19429685 610.31448699 941.82149405 616.13331206 944.38427734 622.01074219 C944.85462402 623.08565918 945.3249707 624.16057617 945.80957031 625.26806641 C965.86909657 671.294095 965.86909657 671.294095 973.06396484 694.10449219 C974.09414826 697.29259152 974.09414826 697.29259152 975.51123047 700.39550781 C977.32835979 704.60118905 978.75700216 708.90657143 980.17333984 713.26074219 C980.45559418 714.12141296 980.73784851 714.98208374 981.02865601 715.86883545 C981.94328843 718.66471722 982.85198722 721.4624697 983.75927734 724.26074219 C984.07074707 725.21903931 984.3822168 726.17733643 984.703125 727.16467285 C990.20064837 744.10266378 995.39003092 761.09510312 1000.13427734 778.26074219 C1000.40643066 779.23640137 1000.67858398 780.21206055 1000.95898438 781.21728516 C1008.14639756 807.15644593 1013.71165826 833.64495203 1018.55761719 860.11230469 C1019.15459027 863.37164632 1019.76374145 866.62859418 1020.37255859 869.88574219 C1024.94019086 894.59553592 1028.5901843 919.41499067 1031.38427734 944.38574219 C1031.46727081 945.12074951 1031.55026428 945.85575684 1031.63577271 946.61303711 C1032.63752251 955.55943444 1033.40058461 964.48502856 1033.87939453 973.47509766 C1034.05115135 976.02611419 1034.29204344 978.57329621 1034.59716797 981.11181641 C1035.47437096 988.76128958 1035.78970979 996.46471958 1036.18115234 1004.15136719 C1036.22552177 1005.0211042 1036.2698912 1005.89084122 1036.31560516 1006.7869339 C1037.25832186 1025.7311449 1037.44354556 1044.65215662 1037.39501953 1063.61669922 C1037.38359146 1068.12211332 1037.39044712 1072.62729181 1037.40189838 1077.13269806 C1037.45235621 1100.5748457 1036.77004449 1123.87533044 1035.13427734 1147.26074219 C1035.02439484 1148.84961243 1035.02439484 1148.84961243 1034.91229248 1150.47058105 C1034.4916107 1156.4073851 1033.99702731 1162.33463275 1033.44677734 1168.26074219 C1033.3670166 1169.13678101 1033.28725586 1170.01281982 1033.20507812 1170.91540527 C1031.73932599 1186.83119461 1029.76969332 1202.67215356 1027.63427734 1218.51074219 C1027.49083893 1219.57728027 1027.34740051 1220.64381836 1027.19961548 1221.74267578 C1023.59133895 1248.37667749 1019.01678577 1274.76907887 1013.33056641 1301.03588867 C1011.99582465 1307.20511174 1010.69932015 1313.3745577 1009.50927734 1319.57324219 C1008.33472199 1325.54905012 1006.83144936 1331.39724131 1005.21240234 1337.26708984 C1004.2004348 1340.97374573 1003.28105765 1344.6991412 1002.37255859 1348.43261719 C1000.13826629 1357.47132079 997.60388921 1366.41992669 995.03515625 1375.3684082 C994.2634707 1378.0586235 993.49742857 1380.75040033 992.73193359 1383.44238281 C988.58071267 1397.98367871 984.3554603 1412.52524068 979.05151367 1426.69433594 C978.04705031 1429.50480143 977.18573829 1432.33799894 976.33349609 1435.19824219 C974.14678215 1442.35082858 971.65768862 1449.36889727 969.07177734 1456.38574219 C968.83572784 1457.02803772 968.59967834 1457.67033325 968.35647583 1458.33209229 C963.68753018 1471.01537651 958.67057458 1483.54462206 953.47949219 1496.0234375 C952.13327075 1499.2631646 950.79871088 1502.50749784 949.46630859 1505.75292969 C945.24790969 1515.99840358 940.95672607 1526.17240973 936.14599609 1536.15625 C934.9355968 1538.67402073 933.73817486 1541.19781875 932.54052734 1543.72167969 C927.55057554 1554.22026767 922.48497548 1564.67359637 917.24560547 1575.04980469 C915.93471435 1577.65776383 914.63577242 1580.27152733 913.33740234 1582.88574219 C912.84884766 1583.86792725 912.36029297 1584.8501123 911.85693359 1585.86206055 C910.8997944 1587.78665293 909.94399019 1589.71191 908.98974609 1591.63793945 C906.51315393 1596.60872348 903.9459916 1601.47149446 901.13427734 1606.26074219 C900.56966797 1607.22496094 900.00505859 1608.18917969 899.42333984 1609.18261719 C898.87419922 1610.11589844 898.32505859 1611.04917969 897.75927734 1612.01074219 C895.52438692 1615.83183662 893.35199668 1619.67264587 891.25927734 1623.57324219 C886.12329933 1633.0624422 880.5397849 1642.29394655 874.47021484 1651.21386719 C872.14476533 1654.77683662 870.16223024 1658.5236116 868.13427734 1662.26074219 C866.81154095 1664.60030525 865.4730454 1666.93029409 864.13427734 1669.26074219 C863.47427734 1669.26074219 862.81427734 1669.26074219 862.13427734 1669.26074219 C861.99965088 1670.07333496 861.99965088 1670.07333496 861.86230469 1670.90234375 C860.90224907 1674.01238307 859.30375862 1676.29477641 857.48583984 1678.99511719 C857.11734924 1679.54572815 856.74885864 1680.09633911 856.36920166 1680.66363525 C855.17156637 1682.44989302 853.96567573 1684.23039371 852.75927734 1686.01074219 C851.93222305 1687.23964369 851.1055643 1688.46881149 850.27929688 1689.69824219 C847.90607968 1693.2248461 845.52145095 1696.74357024 843.13427734 1700.26074219 C842.54066406 1701.13666016 841.94705078 1702.01257812 841.33544922 1702.91503906 C835.75085219 1711.14166071 830.04628608 1719.26513152 824.13427734 1727.26074219 C821.24679789 1726.93991114 820.25089362 1726.38906889 818.26708984 1724.20605469 C817.27322266 1722.81 817.27322266 1722.81 816.25927734 1721.38574219 C815.46507161 1720.28803883 814.67079596 1719.19038607 813.87646484 1718.09277344 C813.44172852 1717.48385254 813.00699219 1716.87493164 812.55908203 1716.24755859 C809.86945239 1712.49700924 807.12249803 1708.78837819 804.38427734 1705.07324219 C803.78856934 1704.26306641 803.19286133 1703.45289063 802.57910156 1702.61816406 C795.69231282 1693.26824428 788.61525432 1684.06685209 781.52099609 1674.87402344 C776.63553847 1668.54087983 771.8059971 1662.17057001 767.0168457 1655.7644043 C762.75535837 1650.07143392 758.44922596 1644.41326361 754.13427734 1638.76074219 C748.81882945 1631.79758092 743.53541107 1624.81232533 738.29052734 1617.79589844 C735.26953571 1613.75965552 732.21713948 1609.74989447 729.13427734 1605.76074219 C724.90004798 1600.27795802 720.73789744 1594.74445341 716.59082031 1589.19555664 C713.5148331 1585.08522323 710.4043728 1581.00593092 707.25927734 1576.94824219 C703.19947712 1571.69323677 699.24908673 1566.36533514 695.32177734 1561.01074219 C687.86771305 1550.85136139 680.21896499 1540.84914794 672.52099609 1530.87402344 C665.48848191 1521.75785276 658.58226712 1512.5505135 651.68994141 1503.328125 C641.1939526 1489.28784897 630.59406585 1475.32619964 619.88427734 1461.44824219 C615.88097061 1456.25458346 611.94235975 1451.01532805 608.01611328 1445.76342773 C603.7548716 1440.07078033 599.44888587 1434.41301205 595.13427734 1428.76074219 C588.42006492 1419.96250799 581.75981055 1411.12586099 575.13427734 1402.26074219 C567.46190422 1391.95162001 567.46190422 1391.95162001 559.63427734 1381.76074219 C553.84959522 1374.37931972 548.29063061 1366.82204032 542.67675781 1359.31054688 C532.18517792 1345.27612155 521.58958973 1331.3203994 510.88427734 1317.44824219 C506.88097061 1312.25458346 502.94235975 1307.01532805 499.01611328 1301.76342773 C494.7548716 1296.07078033 490.44888587 1290.41301205 486.13427734 1284.76074219 C479.42006492 1275.96250799 472.75981055 1267.12586099 466.13427734 1258.26074219 C458.46190422 1247.95162001 458.46190422 1247.95162001 450.63427734 1237.76074219 C444.84959522 1230.37931972 439.29063061 1222.82204032 433.67675781 1215.31054688 C424.90146427 1203.57197145 416.02699482 1191.91053577 407.13427734 1180.26074219 C399.14887326 1169.7995632 391.16943869 1159.335664 383.28955078 1148.79467773 C380.26895462 1144.7587855 377.21669915 1140.7495779 374.13427734 1136.76074219 C368.38669733 1129.32140858 362.76285701 1121.79027163 357.13427734 1114.26074219 C348.66846075 1102.92101729 348.66846075 1102.92101729 340.02880859 1091.71386719 C336.88676149 1087.64540207 333.82213467 1083.51880909 330.74536133 1079.40087891 C327.60077397 1075.19800287 324.41791561 1071.03020348 321.19677734 1066.88574219 C314.96894926 1058.82918808 309.05914685 1050.54129954 303.13427734 1042.26074219 C306.08988455 1036.85276067 309.42650779 1031.91238671 313.07177734 1026.94824219 C314.22940181 1025.35845114 315.38695168 1023.76860578 316.54443359 1022.17871094 C317.13627441 1021.36837402 317.72811523 1020.55803711 318.33789062 1019.72314453 C321.24046557 1015.74443144 324.12538835 1011.75301034 327.00927734 1007.76074219 C327.55519531 1007.00575439 328.10111328 1006.2507666 328.66357422 1005.47290039 C332.04159169 1000.79496791 335.37003506 996.08591658 338.66162109 991.34667969 C340.57656681 988.63426321 342.57944947 985.99353371 344.58349609 983.34667969 C349.77567304 976.56660741 349.77567304 976.56660741 354.13427734 969.26074219 C354.79427734 969.26074219 355.45427734 969.26074219 356.13427734 969.26074219 C356.50552734 968.20886719 356.50552734 968.20886719 356.88427734 967.13574219 C358.30607973 963.86559671 360.00674023 961.11962019 362.13427734 958.26074219 C362.79427734 958.26074219 363.45427734 958.26074219 364.13427734 958.26074219 C364.38951172 957.54144531 364.64474609 956.82214844 364.90771484 956.08105469 C366.21783258 953.06861836 367.79128742 950.76234228 369.75927734 948.13574219 C370.47728516 947.16894531 371.19529297 946.20214844 371.93505859 945.20605469 C372.66080078 944.23410156 373.38654297 943.26214844 374.13427734 942.26074219 C375.40773726 940.5126526 376.67859497 938.76266423 377.94677734 937.01074219 C380.65511912 933.28478472 383.37644773 929.56871905 386.10546875 925.85791016 C392.81383565 916.73219783 399.43016571 907.54444377 405.93505859 898.27246094 C411.87251025 889.81464596 417.91306987 881.44554041 424.06079102 873.13916016 C427.88213477 867.97249619 431.65471539 862.77574477 435.37695312 857.53735352 C438.77158562 852.76067003 442.19955525 848.00866723 445.63427734 843.26074219 C449.48326824 837.93845334 453.32241805 832.60969193 457.13427734 827.26074219 C464.41032295 817.05302786 471.75572642 806.89457478 479.13427734 796.76074219 C490.38832137 781.31689551 490.38832137 781.31689551 501.41943359 765.71386719 C508.96417606 754.92093264 516.72269396 744.27639324 524.43896484 733.60595703 C526.15092342 731.23771479 527.86157217 728.86853214 529.57177734 726.49902344 C534.70187765 719.39138195 539.83734682 712.28797383 544.99755859 705.20214844 C548.91188925 699.81368228 552.8071618 694.41143993 556.70458984 689.01074219 C558.94646457 685.90445353 561.19128589 682.80033331 563.43896484 679.69824219 C568.69630953 672.43832425 573.9224009 665.16020637 579.07177734 657.82324219 C583.89845147 650.95150256 588.84912174 644.17842216 593.84399414 637.42822266 C600.01147015 629.08984271 606.08500967 620.68514549 612.13427734 612.26074219 C612.57723145 611.64392578 613.02018555 611.02710938 613.4765625 610.39160156 C617.37572593 604.95703954 621.25879203 599.51167421 625.10302734 594.03808594 C629.54069381 587.72156591 633.97222958 581.41498246 638.63427734 575.26074219 C642.15063183 570.61864831 645.53746769 565.90038014 648.88427734 561.13574219 C657.49854173 548.8747634 666.28513438 536.74464625 675.19677734 524.69824219 C680.7193301 517.23239913 686.10813246 509.681837 691.44287109 502.08105469 C695.45813974 496.36521836 699.56856146 490.71724451 703.73193359 485.10839844 C706.27796493 482.00971216 706.27796493 482.00971216 707.13427734 478.26074219 C654.46122974 478.16925586 601.78819014 478.09873867 549.11507876 478.05648087 C542.90142608 478.05147784 536.68777355 478.04630057 530.47412109 478.04101562 C528.61852318 478.03944176 528.61852318 478.03944176 526.72543845 478.0378361 C506.67541788 478.02041444 486.62544303 477.98886706 466.57544962 477.952131 C446.01372752 477.91477058 425.45202941 477.89251672 404.89027476 477.88438821 C392.19493709 477.87889026 379.49972861 477.86150402 366.80443069 477.82907632 C358.10760243 477.80798888 349.41084129 477.80152902 340.71398929 477.80673668 C335.69074407 477.80930747 330.66772514 477.80527136 325.64451981 477.78392029 C321.05020638 477.76453405 316.45627261 477.76342027 311.86194214 477.77714661 C310.19565636 477.77884445 308.5293474 477.77370318 306.86310759 477.76120946 C304.60562137 477.74526016 302.34952297 477.75374273 300.09206009 477.76855087 C298.83594524 477.76703199 297.57983038 477.76551311 296.28565145 477.7639482 C292.52362683 478.35700734 291.4541206 479.31113174 289.13427734 482.26074219 C287.58444361 484.47037832 286.09478312 486.68167463 284.63427734 488.94824219 C280.52542432 495.22215652 276.2602297 501.36092304 271.90039062 507.46240234 C268.96559203 511.59519306 266.11607138 515.77236664 263.32958984 520.00683594 C262.69375977 520.97282715 262.05792969 521.93881836 261.40283203 522.93408203 C260.15507301 524.83789588 258.91337546 526.7456983 257.67822266 528.65771484 C257.11458008 529.51800293 256.5509375 530.37829102 255.97021484 531.26464844 C255.22070557 532.42202515 255.22070557 532.42202515 254.45605469 533.6027832 C254.01986816 534.14990967 253.58368164 534.69703613 253.13427734 535.26074219 C252.47427734 535.26074219 251.81427734 535.26074219 251.13427734 535.26074219 C250.73269409 536.35491455 250.73269409 536.35491455 250.32299805 537.47119141 C249.15104956 540.22138311 247.8111661 542.43843171 246.11474609 544.89355469 C245.51122314 545.77245361 244.9077002 546.65135254 244.28588867 547.55688477 C243.63773193 548.49040771 242.9895752 549.42393066 242.32177734 550.38574219 C240.95458436 552.3714155 239.58739696 554.35709265 238.22021484 556.34277344 C237.53282227 557.33744629 236.84542969 558.33211914 236.13720703 559.35693359 C234.30699906 562.01033359 232.48710298 564.67030309 230.67333984 567.33496094 C225.49586833 574.94068055 220.2734577 582.50865207 214.94677734 590.01074219 C211.34429723 595.08466602 207.81127398 600.19167809 204.38427734 605.38574219 C199.45940104 612.84902656 194.34636275 620.17710266 189.22900391 627.50927734 C184.99939413 633.57211461 180.79825528 639.65266183 176.63427734 645.76074219 C171.79879831 652.8510138 166.91524458 659.90656691 162.00927734 666.94824219 C149.46687848 684.91573894 149.46687848 684.91573894 137.27880859 703.12402344 C135.36346884 705.9255131 133.38492496 708.65860433 131.37646484 711.39355469 C127.21739442 717.08847374 123.3184108 722.93072241 119.44677734 728.82324219 C114.02256817 737.02550378 108.45820154 745.08503128 102.65161133 753.02026367 C98.4586038 758.76429786 94.49422416 764.6335332 90.57958984 770.56933594 C83.94465031 780.62316427 76.99508555 790.46718257 70.07177734 800.32324219 C66.06469998 806.02905371 62.09861602 811.75315008 58.25927734 817.57324219 C52.67087636 826.04415594 46.83908345 834.34473634 41.03271484 842.66699219 C37.77815827 847.33211928 34.54089569 852.00860419 31.32177734 856.69824219 C30.88671875 857.33181641 30.45166016 857.96539063 30.00341797 858.61816406 C28.26655027 861.14902843 26.53117409 863.68090764 24.79736328 866.21386719 C19.61072178 873.79061451 14.38665549 881.33575383 9.07177734 888.82324219 C4.96162605 894.61663574 0.96579015 900.46985495 -2.94506836 906.39916992 C-6.97355418 912.48033689 -11.17781317 918.43399862 -15.38574219 924.3918457 C-18.59392912 928.95330899 -21.73704911 933.54771297 -24.80322266 938.20605469 C-25.44163086 939.17591309 -26.08003906 940.14577148 -26.73779297 941.14501953 C-27.97256403 943.02928146 -29.20127022 944.91753424 -30.42333984 946.81005859 C-31.25333496 948.0772876 -31.25333496 948.0772876 -32.10009766 949.37011719 C-32.58704102 950.12260742 -33.07398438 950.87509766 -33.57568359 951.65039062 C-34.00139648 952.18180664 -34.42710937 952.71322266 -34.86572266 953.26074219 C-35.52572266 953.26074219 -36.18572266 953.26074219 -36.86572266 953.26074219 C-36.977146 953.83985352 -37.08856934 954.41896484 -37.20336914 955.015625 C-37.93843504 957.50720849 -38.94562257 959.08004901 -40.46337891 961.18261719 C-41.00953857 961.94872314 -41.55569824 962.7148291 -42.1184082 963.50415039 C-42.71564697 964.33132568 -43.31288574 965.15850098 -43.92822266 966.01074219 C-49.45391944 973.77027713 -54.80515464 981.62349114 -60.05322266 989.57324219 C-64.67588384 996.54702212 -69.32854433 1003.48666973 -74.24072266 1010.26074219 C-74.91010864 1011.19527222 -74.91010864 1011.19527222 -75.59301758 1012.14868164 C-76.63205812 1013.55908715 -77.74169967 1014.91708253 -78.86572266 1016.26074219 C-79.52572266 1016.26074219 -80.18572266 1016.26074219 -80.86572266 1016.26074219 C-81.19572266 838.72074219 -81.52572266 661.18074219 -81.86572266 478.26074219 C-202.64572266 478.26074219 -323.42572266 478.26074219 -447.86572266 478.26074219 C-447.86572266 865.68074219 -447.86572266 1253.10074219 -447.86572266 1652.26074219 C-328.73572266 1652.26074219 -209.60572266 1652.26074219 -86.86572266 1652.26074219 C-86.86572266 1474.39074219 -86.86572266 1296.52074219 -86.86572266 1113.26074219 C-83.25816229 1115.06452237 -82.34372429 1115.54168965 -80.16650391 1118.53417969 C-79.68415283 1119.18805664 -79.20180176 1119.84193359 -78.70483398 1120.515625 C-78.20105225 1121.21526367 -77.69727051 1121.91490234 -77.17822266 1122.63574219 C-76.1053656 1124.09672346 -75.03244845 1125.55766061 -73.95947266 1127.01855469 C-73.43353516 1127.74075195 -72.90759766 1128.46294922 -72.36572266 1129.20703125 C-70.32935846 1131.9951002 -68.25560461 1134.7530908 -66.17822266 1137.51074219 C-65.47439453 1138.45175781 -64.77056641 1139.39277344 -64.04541016 1140.36230469 C-62.47666517 1142.44834193 -60.89928064 1144.5256267 -59.31103516 1146.59667969 C-58.68201294 1147.42184082 -58.68201294 1147.42184082 -58.0402832 1148.26367188 C-56.86939117 1149.79898008 -55.69386538 1151.33075116 -54.51806641 1152.86230469 C-52.86572266 1155.26074219 -52.86572266 1155.26074219 -52.86572266 1157.26074219 C-52.20572266 1157.26074219 -51.54572266 1157.26074219 -50.86572266 1157.26074219 C-46.86572266 1162.67250689 -46.86572266 1162.67250689 -46.86572266 1165.26074219 C-46.20572266 1165.26074219 -45.54572266 1165.26074219 -44.86572266 1165.26074219 C-43.49072266 1166.99121094 -43.49072266 1166.99121094 -41.86572266 1169.44824219 C-38.69593379 1174.1081586 -35.35123219 1178.58435762 -31.89746094 1183.03686523 C-28.63657003 1187.24748911 -25.42763764 1191.49389724 -22.24072266 1195.76074219 C-17.40689746 1202.22999432 -12.51908803 1208.65656944 -7.61572266 1215.07324219 C-3.60211009 1220.32643495 0.40697871 1225.57486427 4.25927734 1230.94824219 C7.75625756 1235.82070129 11.44054967 1240.53706983 15.13427734 1245.26074219 C19.55555497 1250.91536625 23.90121526 1256.60057878 28.08740234 1262.43261719 C34.66890804 1271.52614795 41.48680732 1280.45058253 48.34912109 1289.33325195 C53.1604425 1295.57174112 57.87134334 1301.88530471 62.58886719 1308.19482422 C65.67047308 1312.31434224 68.75938454 1316.42838545 71.84692383 1320.54345703 C74.0440279 1323.47220936 76.23976278 1326.40192762 78.43115234 1329.33496094 C82.73287816 1335.08891171 87.07690412 1340.80851242 91.44677734 1346.51074219 C98.21945445 1355.34972661 104.8995684 1364.25612653 111.56542969 1373.17578125 C118.46777216 1382.40887701 125.42789743 1391.59603001 132.42016602 1400.76123047 C136.92093478 1406.66251446 141.3970791 1412.58028533 145.83789062 1418.52685547 C148.76505427 1422.44186793 151.70071548 1426.35052325 154.63427734 1430.26074219 C161.97316513 1440.04293167 161.97316513 1440.04293167 164.53662109 1443.47558594 C170.06250935 1450.868185 175.6591418 1458.20594512 181.25756836 1465.54370117 C185.55372319 1471.17724743 189.82084727 1476.83033011 194.06005859 1482.50683594 C196.41393024 1485.63203276 198.80335564 1488.7283159 201.19677734 1491.82324219 C204.91619231 1496.63476487 208.51801395 1501.5200873 212.07568359 1506.45214844 C214.77563657 1510.1357655 217.56414549 1513.74828386 220.35742188 1517.36108398 C224.25465207 1522.40460206 228.08218027 1527.49845091 231.89648438 1532.60498047 C234.24255359 1535.74325294 236.59527498 1538.87654005 238.94677734 1542.01074219 C239.97024101 1543.3753059 240.99367827 1544.73988941 242.01708984 1546.10449219 C242.53045898 1546.78898437 243.04382812 1547.47347656 243.57275391 1548.17871094 C248.25146485 1554.41699219 248.25146485 1554.41699219 249.79296875 1556.47241211 C250.8107682 1557.82942386 251.82867156 1559.18635768 252.84667969 1560.54321289 C255.04390975 1563.47201333 257.2396945 1566.40183624 259.43115234 1569.33496094 C264.28616284 1575.82898045 269.20069539 1582.27523039 274.1328125 1588.71069336 C278.26033255 1594.10248271 282.34302243 1599.52615827 286.4074707 1604.96557617 C290.57130755 1610.52974899 294.78807904 1616.05251676 299.00927734 1621.57324219 C304.16253984 1628.31522854 309.24859645 1635.09967495 314.25927734 1641.94824219 C319.40760344 1648.9839711 324.69969024 1655.89023992 330.078125 1662.7512207 C334.77230553 1668.75421481 339.30545042 1674.86161418 343.77880859 1681.03027344 C345.7565385 1683.74268245 347.77367606 1686.41405241 349.82177734 1689.07324219 C352.13427734 1692.26074219 352.13427734 1692.26074219 352.13427734 1694.26074219 C352.79427734 1694.26074219 353.45427734 1694.26074219 354.13427734 1694.26074219 C355.71746552 1696.29148548 357.18455682 1698.32479378 358.63427734 1700.44824219 C359.53723209 1701.74260367 360.44223088 1703.03554128 361.34912109 1704.32714844 C361.8117334 1704.98602051 362.2743457 1705.64489258 362.75097656 1706.32373047 C364.82880896 1709.23328258 367.00301525 1712.06309587 369.19677734 1714.88574219 C369.60395996 1715.41167969 370.01114258 1715.93761719 370.43066406 1716.47949219 C371.24935271 1717.53687031 372.06836167 1718.5940005 372.88769531 1719.65087891 C375.02280817 1722.40821032 377.14765923 1725.17287647 379.25927734 1727.94824219 C380.00435547 1728.92148438 380.74943359 1729.89472656 381.51708984 1730.89746094 C383.13427734 1733.26074219 383.13427734 1733.26074219 383.13427734 1735.26074219 C383.79427734 1735.26074219 384.45427734 1735.26074219 385.13427734 1735.26074219 C389.13427734 1740.67250689 389.13427734 1740.67250689 389.13427734 1743.26074219 C389.79427734 1743.26074219 390.45427734 1743.26074219 391.13427734 1743.26074219 C395.13427734 1748.67250689 395.13427734 1748.67250689 395.13427734 1751.26074219 C395.79427734 1751.26074219 396.45427734 1751.26074219 397.13427734 1751.26074219 C398.40380859 1752.85058594 398.40380859 1752.85058594 399.94677734 1755.19824219 C403.19322032 1759.97084804 406.61205078 1764.56622401 410.13427734 1769.13574219 C415.09422015 1775.58301455 420.00843335 1782.0621057 424.88427734 1788.57324219 C425.52196045 1789.4245874 426.15964355 1790.27593262 426.81665039 1791.15307617 C429.45694056 1794.67976174 432.0950289 1798.20808745 434.73193359 1801.73730469 C438.91526508 1807.32983602 443.14346454 1812.88408076 447.40942383 1818.41357422 C451.28496858 1823.44272424 455.09692396 1828.51818953 458.89648438 1833.60498047 C461.24255349 1836.74325281 463.59521524 1839.87658504 465.94677734 1843.01074219 C468.96895391 1847.03871747 471.99042101 1851.06719751 475.00537109 1855.10058594 C480.6769476 1862.68331069 486.38986379 1870.23301866 492.13427734 1877.76074219 C498.84813269 1886.55929741 505.50762929 1895.39641782 512.13427734 1904.26074219 C519.84948955 1914.57764548 527.58215231 1924.87850694 535.42431641 1935.09936523 C539.5905117 1940.53428635 543.71327231 1946.00052106 547.79785156 1951.49707031 C550.19396118 1954.71334644 552.62147644 1957.89076468 555.14208984 1961.01074219 C555.61493408 1961.60209961 556.08777832 1962.19345703 556.57495117 1962.80273438 C557.86251657 1964.40583235 559.16394765 1965.99776576 560.46630859 1967.58886719 C562.13427734 1970.26074219 562.13427734 1970.26074219 562.30224609 1972.36230469 C560.45997195 1975.35677035 557.62741638 1976.71941984 554.63427734 1978.38574219 C553.9664624 1978.77117187 553.29864746 1979.15660156 552.6105957 1979.55371094 C551.18483938 1980.3764598 549.75627429 1981.19435708 548.32519531 1982.0078125 C546.17739002 1983.23608716 544.04629718 1984.48878968 541.91943359 1985.75292969 C527.58945858 1994.26380836 513.06599951 2002.39512468 498.3347168 2010.19067383 C496.19851063 2011.32232398 494.06577962 2012.46034333 491.93310547 2013.59863281 C483.36761994 2018.14941639 474.71055602 2022.42587567 465.90625 2026.49536133 C462.37760009 2028.13118053 458.9103912 2029.866461 455.44677734 2031.63574219 C440.61182424 2039.08678198 425.37360465 2045.65051391 410.07177734 2052.07324219 C409.42355011 2052.34573792 408.77532288 2052.61823364 408.10745239 2052.89898682 C400.4516106 2056.11218426 392.76330459 2059.21705188 384.99609375 2062.15258789 C382.15809969 2063.25151768 379.36468346 2064.42736141 376.57177734 2065.63574219 C340.73518452 2080.62530804 302.60949333 2091.24698869 265.01554871 2100.75259399 C261.18235353 2101.72552164 257.36646778 2102.74290751 253.56005859 2103.81542969 C246.56963898 2105.74152949 239.47709986 2107.20706991 232.38427734 2108.69824219 C231.66217072 2108.85103638 230.94006409 2109.00383057 230.19607544 2109.16125488 C218.34530995 2111.66454429 206.46596891 2113.86925624 194.51660156 2115.85205078 C191.04293008 2116.4479645 187.59160549 2117.13879651 184.13427734 2117.82324219 C175.78212236 2119.41126754 167.3767154 2120.45736944 158.94287109 2121.51074219 C155.38337348 2121.95910928 151.83742221 2122.4468012 148.29443359 2123.01074219 C137.02681853 2124.79374686 125.74925462 2125.90213645 114.38427734 2126.82324219 C113.67535339 2126.88141113 112.96642944 2126.93958008 112.23602295 2126.99951172 C107.51093245 2127.38294825 102.78378637 2127.72465457 98.05444336 2128.0512085 C96.02369552 2128.19692285 93.99360309 2128.35194781 91.96411133 2128.51422119 C65.86197436 2130.59461689 39.77721575 2130.56987606 13.60595703 2130.52148438 C7.38404095 2130.51009079 1.16229604 2130.51685711 -5.05961418 2130.52837467 C-29.94650623 2130.56737238 -54.73517346 2130.4890979 -79.55529785 2128.51957703 C-84.21588826 2128.15517571 -88.87997625 2127.84955073 -93.54458618 2127.54162598 C-132.91347611 2124.85165093 -172.16958804 2118.92540747 -210.86572266 2111.26074219 C-211.57029602 2111.12192627 -212.27486938 2110.98311035 -213.00079346 2110.84008789 C-254.76341058 2102.5850556 -295.72255371 2090.87244948 -336.0234375 2077.21630859 C-338.01039953 2076.54829886 -340.0006037 2075.88989035 -341.99316406 2075.23876953 C-343.03005371 2074.8992627 -344.06694336 2074.55975586 -345.13525391 2074.20996094 C-346.06571533 2073.90791748 -346.99617676 2073.60587402 -347.95483398 2073.29467773 C-351.32850951 2072.09636222 -354.57740261 2070.67593474 -357.86572266 2069.26074219 C-360.34729555 2068.31545257 -362.83060567 2067.3839124 -365.32275391 2066.46777344 C-373.46186803 2063.44369828 -381.51546619 2060.23088319 -389.55322266 2056.94824219 C-390.58597321 2056.52729279 -390.58597321 2056.52729279 -391.6395874 2056.09783936 C-423.87828214 2042.95150345 -423.87828214 2042.95150345 -437.03369141 2036.19433594 C-441.00561934 2034.16558736 -445.03716209 2032.26761978 -449.06860352 2030.3605957 C-463.1365049 2023.70351517 -477.21093772 2016.93026 -490.45166016 2008.71679688 C-492.92626269 2007.22422714 -495.43670837 2005.83383839 -497.97900391 2004.45996094 C-534.50589129 1984.62517419 -569.52573219 1962.09505249 -602.86572266 1937.26074219 C-603.91244141 1936.4834375 -604.95916016 1935.70613281 -606.03759766 1934.90527344 C-607.96608656 1933.46400858 -609.89075248 1932.01761021 -611.81103516 1930.56542969 C-614.11074256 1928.83035633 -616.41767015 1927.10766845 -618.73291016 1925.39355469 C-626.10507014 1919.92340672 -633.29648417 1914.33493806 -640.29150391 1908.38964844 C-642.50756399 1906.55694321 -644.74496878 1904.88383317 -647.11572266 1903.26074219 C-648.02322266 1902.60074219 -648.93072266 1901.94074219 -649.86572266 1901.26074219 C-649.86572266 1900.60074219 -649.86572266 1899.94074219 -649.86572266 1899.26074219 C-650.46384766 1898.97199219 -651.06197266 1898.68324219 -651.67822266 1898.38574219 C-653.86572266 1897.26074219 -653.86572266 1897.26074219 -656.86572266 1895.26074219 C-656.86572266 1894.60074219 -656.86572266 1893.94074219 -656.86572266 1893.26074219 C-658.51572266 1892.60074219 -660.16572266 1891.94074219 -661.86572266 1891.26074219 C-661.86572266 1890.60074219 -661.86572266 1889.94074219 -661.86572266 1889.26074219 C-662.41744141 1889.02742188 -662.96916016 1888.79410156 -663.53759766 1888.55371094 C-666.47827533 1886.92054935 -668.65649517 1884.86735012 -671.11572266 1882.57324219 C-672.07994141 1881.6825 -673.04416016 1880.79175781 -674.03759766 1879.87402344 C-674.97087891 1879.01164062 -675.90416016 1878.14925781 -676.86572266 1877.26074219 C-678.35964662 1875.92060452 -679.85881459 1874.58626317 -681.36572266 1873.26074219 C-681.97416016 1872.72449219 -682.58259766 1872.18824219 -683.20947266 1871.63574219 C-685.02956525 1870.07590811 -685.02956525 1870.07590811 -687.86572266 1868.26074219 C-687.86572266 1867.60074219 -687.86572266 1866.94074219 -687.86572266 1866.26074219 C-688.52572266 1866.26074219 -689.18572266 1866.26074219 -689.86572266 1866.26074219 C-689.86572266 1865.60074219 -689.86572266 1864.94074219 -689.86572266 1864.26074219 C-690.73970703 1863.87982422 -690.73970703 1863.87982422 -691.63134766 1863.49121094 C-694.10760298 1862.12753886 -695.67092891 1860.61849015 -697.61572266 1858.57324219 C-700.03467158 1856.03741128 -702.52014841 1853.68869381 -705.18994141 1851.42480469 C-711.38843094 1846.04630117 -717.11143393 1840.16368018 -722.90209961 1834.35473633 C-724.92336533 1832.32811239 -726.94991839 1830.30688671 -728.97705078 1828.28613281 C-740.70432072 1816.56418726 -740.70432072 1816.56418726 -745.62158203 1810.71313477 C-746.77322261 1809.36872546 -748.03533193 1808.1211229 -749.30322266 1806.88574219 C-750.86572266 1805.26074219 -750.86572266 1805.26074219 -750.86572266 1803.26074219 C-751.46513672 1802.99648437 -752.06455078 1802.73222656 -752.68212891 1802.45996094 C-754.97712976 1801.19955797 -756.1383096 1800.07378758 -757.80322266 1798.07324219 C-760.23345561 1795.19099655 -762.67835807 1792.32835733 -765.17431641 1789.50292969 C-765.76027588 1788.83672607 -766.34623535 1788.17052246 -766.94995117 1787.48413086 C-768.13389734 1786.13812853 -769.32054238 1784.79449484 -770.51000977 1783.45336914 C-771.05794189 1782.82648193 -771.60587402 1782.19959473 -772.17041016 1781.55371094 C-772.66524902 1780.99192139 -773.16008789 1780.43013184 -773.66992188 1779.85131836 C-774.86572266 1778.26074219 -774.86572266 1778.26074219 -775.86572266 1775.26074219 C-776.52572266 1775.26074219 -777.18572266 1775.26074219 -777.86572266 1775.26074219 C-779.32490229 1773.67080104 -780.7082162 1772.01086646 -782.05322266 1770.32324219 C-782.86404297 1769.31132813 -783.67486328 1768.29941406 -784.51025391 1767.25683594 C-786.43408998 1764.8097675 -788.34309958 1762.35311166 -790.24072266 1759.88574219 C-793.1447444 1756.11253528 -796.20499345 1752.49867296 -799.30322266 1748.88574219 C-812.86572266 1733.01116107 -812.86572266 1733.01116107 -812.86572266 1729.26074219 C-813.52572266 1729.26074219 -814.18572266 1729.26074219 -814.86572266 1729.26074219 C-816.09570312 1727.87817383 -816.09570312 1727.87817383 -817.48291016 1725.92089844 C-818.00159668 1725.19580078 -818.5202832 1724.47070312 -819.0546875 1723.72363281 C-819.6110791 1722.93150391 -820.1674707 1722.139375 -820.74072266 1721.32324219 C-821.60431396 1720.10991211 -821.60431396 1720.10991211 -822.48535156 1718.87207031 C-824.28537485 1716.33954233 -826.07601942 1713.80057049 -827.86572266 1711.26074219 C-828.95906371 1709.71748363 -830.05279758 1708.17450328 -831.14697266 1706.63183594 C-833.64258688 1703.10909664 -836.12862558 1699.57975153 -838.60986328 1696.046875 C-839.67639044 1694.53001794 -840.74716353 1693.01614767 -841.81884766 1691.50292969 C-845.72636323 1685.97032587 -849.49613627 1680.35205307 -853.22753906 1674.69970703 C-855.2749567 1671.60665873 -857.35913421 1668.55516348 -859.53369141 1665.54980469 C-861.21780012 1663.20861857 -862.72454547 1660.88840264 -864.05322266 1658.32324219 C-866.31322121 1654.15898559 -868.77765233 1650.14237231 -871.30322266 1646.13574219 C-875.623371 1639.26977727 -879.88713848 1632.37100176 -884.11572266 1625.44824219 C-884.9828186 1624.03551025 -884.9828186 1624.03551025 -885.86743164 1622.59423828 C-889.22171654 1617.09280674 -892.40679804 1611.5292926 -895.46337891 1605.85717773 C-896.73914009 1603.49510946 -898.03985092 1601.15017798 -899.35791016 1598.81152344 C-904.39859591 1589.85562076 -909.18125628 1580.82346954 -913.70849609 1571.59863281 C-915.03928246 1568.91010744 -916.39284509 1566.2336699 -917.74853516 1563.55761719 C-923.12196842 1552.93219857 -928.31811527 1542.28249656 -933.06494141 1531.36230469 C-934.79221671 1527.39265091 -936.63176361 1523.4825162 -938.49072266 1519.57324219 C-941.13172469 1513.99482186 -943.49301743 1508.34266033 -945.73950195 1502.5949707 C-947.14778703 1499.00447811 -948.65219944 1495.4956381 -950.30322266 1492.01074219 C-953.3750591 1485.40133925 -955.76063394 1478.53972451 -958.24462891 1471.69433594 C-959.39608102 1468.52505104 -960.58774037 1465.38165172 -961.86572266 1462.26074219 C-967.83457373 1447.59107089 -972.86590121 1432.57158811 -977.74072266 1417.51074219 C-978.04186981 1416.58308044 -978.34301697 1415.6554187 -978.65328979 1414.699646 C-985.80843346 1392.62923914 -992.70045284 1370.49014758 -997.79541016 1347.83886719 C-998.5302825 1344.59043721 -999.37922406 1341.39452195 -1000.28759766 1338.19042969 C-1002.29742445 1330.91604713 -1003.7490089 1323.52912753 -1005.24072266 1316.13574219 C-1005.54886107 1314.61950459 -1005.85721347 1313.10331047 -1006.16577148 1311.5871582 C-1006.78185387 1308.55673 -1007.39561615 1305.52584438 -1008.0078125 1302.49462891 C-1008.75879331 1298.78040861 -1009.52315238 1295.06906815 -1010.29150391 1291.35839844 C-1013.04080359 1277.99559578 -1015.37565408 1264.600742 -1017.42919922 1251.11376953 C-1017.82260275 1248.54256503 -1018.22825042 1245.97372614 -1018.63916016 1243.40527344 C-1022.35977574 1219.8388993 -1025.11997868 1196.0527386 -1026.86572266 1172.26074219 C-1026.95063965 1171.1210498 -1027.03555664 1169.98135742 -1027.12304688 1168.80712891 C-1028.21235482 1153.98032806 -1029.08818013 1139.16410655 -1029.52416992 1124.30273438 C-1029.55567139 1123.27438477 -1029.58717285 1122.24603516 -1029.61962891 1121.18652344 C-1029.64355713 1120.30391846 -1029.66748535 1119.42131348 -1029.69213867 1118.51196289 C-1029.84283638 1115.6894012 -1030.09139966 1112.90603973 -1030.37060547 1110.09423828 C-1030.90261914 1104.38626705 -1031.02665281 1098.72900088 -1031.03369141 1092.99902344 C-1031.03779022 1091.94602554 -1031.04188904 1090.89302765 -1031.04611206 1089.80812073 C-1031.05564511 1086.39646107 -1031.05563949 1082.98491323 -1031.05322266 1079.57324219 C-1031.05361542 1078.40400208 -1031.05400818 1077.23476196 -1031.05441284 1076.03009033 C-1031.04633013 1055.85943708 -1030.38160232 1035.78690683 -1029.13183594 1015.65820312 C-1028.84538637 1011.00897655 -1028.6018362 1006.35787531 -1028.36181641 1001.70605469 C-1028.23707397 999.32400481 -1028.11184724 996.94198094 -1027.98641968 994.55996704 C-1027.90792636 993.06470407 -1027.83011041 991.56940533 -1027.75308228 990.07406616 C-1027.16834378 978.83319776 -1026.24559317 967.64710784 -1025.11572266 956.44824219 C-1024.98650421 955.16090683 -1024.98650421 955.16090683 -1024.85467529 953.8475647 C-1021.16957232 917.42798414 -1015.67301945 881.16191097 -1007.95166016 845.37402344 C-1006.97742001 840.8507656 -1006.11878331 836.31485083 -1005.30322266 831.76074219 C-1004.09788851 825.19911976 -1002.5615635 818.77493047 -1000.89697266 812.31933594 C-1000.01581249 808.89324608 -999.20564185 805.45456515 -998.41503906 802.0065918 C-996.39423943 793.20283735 -994.05695988 784.51527847 -991.58837891 775.82763672 C-990.80267867 773.03680826 -990.03618679 770.24112199 -989.27197266 767.44433594 C-985.19377617 752.58225464 -980.67052213 737.90294309 -975.86572266 723.26074219 C-975.36157063 721.70873867 -974.85764101 720.15666288 -974.35400391 718.60449219 C-971.28158464 709.21445233 -971.28158464 709.21445233 -969.40087891 704.90136719 C-968.02545354 701.63954419 -966.92607361 698.43097693 -965.87573242 695.05908203 C-960.54613038 678.06530436 -953.48694832 661.68968143 -946.68585205 645.24664307 C-945.57192828 642.54933432 -944.46733429 639.84822378 -943.36181641 637.14746094 C-940.02922333 629.0610448 -936.47089681 621.18462542 -932.40869141 613.43652344 C-931.25358822 611.05905789 -930.29481434 608.80589296 -929.39697266 606.33496094 C-927.93289579 602.31867429 -926.1284912 598.56046153 -924.17822266 594.76074219 C-923.46189949 593.34807168 -922.74575858 591.93530874 -922.02978516 590.52246094 C-921.66788086 589.81138184 -921.30597656 589.10030273 -920.93310547 588.36767578 C-919.92878469 586.38522191 -918.93711478 584.39716069 -917.95166016 582.40527344 C-914.14002446 574.70421355 -910.2254123 567.0612781 -906.24072266 559.44824219 C-905.79752686 558.60108643 -905.35433105 557.75393066 -904.89770508 556.88110352 C-893.34130583 534.8810169 -880.9475731 513.3861105 -867.86572266 492.26074219 C-867.37813477 491.46812988 -866.89054687 490.67551758 -866.38818359 489.85888672 C-857.03355983 474.66981206 -846.97101311 459.95583146 -836.86572266 445.26074219 C-836.28258301 444.4117334 -835.69944336 443.56272461 -835.09863281 442.68798828 C-828.50575565 433.12221762 -821.5832291 423.83761425 -814.47045898 414.65161133 C-811.39577145 410.66561875 -808.43855892 406.67497799 -805.70166016 402.44824219 C-803.41286183 398.94458764 -800.89573991 396.16430608 -797.86572266 393.26074219 C-796.18072797 391.17519409 -794.53941139 389.08818115 -792.92822266 386.94824219 C-792.49509766 386.38081299 -792.06197266 385.81338379 -791.61572266 385.22875977 C-788.68680612 381.38346394 -785.81856055 377.49657468 -783.02197266 373.55371094 C-782.64041016 373.12703125 -782.25884766 372.70035156 -781.86572266 372.26074219 C-781.20572266 372.26074219 -780.54572266 372.26074219 -779.86572266 372.26074219 C-779.59171631 371.6690625 -779.31770996 371.07738281 -779.03540039 370.46777344 C-777.90920468 368.34278718 -776.73012932 366.75094861 -775.15087891 364.94824219 C-774.36874023 364.0471875 -774.36874023 364.0471875 -773.57080078 363.12792969 C-773.02875 362.51175781 -772.48669922 361.89558594 -771.92822266 361.26074219 C-770.8554858 360.03255484 -769.78383953 358.80341395 -768.71337891 357.57324219 C-768.21338379 357.00089844 -767.71338867 356.42855469 -767.19824219 355.83886719 C-766.10908163 354.54895626 -765.09785569 353.19359522 -764.11181641 351.82324219 C-763.70060547 351.30761719 -763.28939453 350.79199219 -762.86572266 350.26074219 C-762.20572266 350.26074219 -761.54572266 350.26074219 -760.86572266 350.26074219 C-760.60218994 349.67502441 -760.33865723 349.08930664 -760.06713867 348.48583984 C-758.81469424 346.16623437 -757.46255692 344.55869588 -755.64306641 342.65917969 C-755.02238281 342.00433594 -754.40169922 341.34949219 -753.76220703 340.67480469 C-752.79250977 339.66546875 -752.79250977 339.66546875 -751.80322266 338.63574219 C-750.51864131 337.29132404 -749.23599163 335.94505672 -747.95556641 334.59667969 C-747.38700928 334.00419434 -746.81845215 333.41170898 -746.23266602 332.80126953 C-744.77188303 331.2890024 -744.77188303 331.2890024 -743.86572266 329.26074219 C-743.20572266 329.26074219 -742.54572266 329.26074219 -741.86572266 329.26074219 C-741.66076172 328.72707031 -741.45580078 328.19339844 -741.24462891 327.64355469 C-739.28739619 324.26136785 -736.60602616 321.83036731 -733.80322266 319.13574219 C-729.86123325 315.56520852 -729.86123325 315.56520852 -726.86572266 311.26074219 C-726.20572266 311.26074219 -725.54572266 311.26074219 -724.86572266 311.26074219 C-724.86572266 310.60074219 -724.86572266 309.94074219 -724.86572266 309.26074219 C-724.20572266 309.26074219 -723.54572266 309.26074219 -722.86572266 309.26074219 C-722.86572266 308.60074219 -722.86572266 307.94074219 -722.86572266 307.26074219 C-722.20572266 307.26074219 -721.54572266 307.26074219 -720.86572266 307.26074219 C-720.86572266 306.60074219 -720.86572266 305.94074219 -720.86572266 305.26074219 C-720.20572266 305.26074219 -719.54572266 305.26074219 -718.86572266 305.26074219 C-718.86572266 304.60074219 -718.86572266 303.94074219 -718.86572266 303.26074219 C-718.20572266 303.26074219 -717.54572266 303.26074219 -716.86572266 303.26074219 C-716.53572266 302.27074219 -716.20572266 301.28074219 -715.86572266 300.26074219 C-715.20572266 300.26074219 -714.54572266 300.26074219 -713.86572266 300.26074219 C-713.86572266 299.60074219 -713.86572266 298.94074219 -713.86572266 298.26074219 C-713.20572266 298.26074219 -712.54572266 298.26074219 -711.86572266 298.26074219 C-711.86572266 297.60074219 -711.86572266 296.94074219 -711.86572266 296.26074219 C-711.20572266 296.26074219 -710.54572266 296.26074219 -709.86572266 296.26074219 C-709.86572266 295.60074219 -709.86572266 294.94074219 -709.86572266 294.26074219 C-709.20572266 294.26074219 -708.54572266 294.26074219 -707.86572266 294.26074219 C-707.86572266 293.60074219 -707.86572266 292.94074219 -707.86572266 292.26074219 C-706.50244141 290.92089844 -706.50244141 290.92089844 -704.55322266 289.32324219 C-700.29037523 285.72384329 -696.40416656 281.84206239 -692.5480957 277.81762695 C-691.35662969 276.59583505 -690.11478402 275.42358888 -688.86572266 274.26074219 C-688.20572266 274.26074219 -687.54572266 274.26074219 -686.86572266 274.26074219 C-686.86572266 273.60074219 -686.86572266 272.94074219 -686.86572266 272.26074219 C-685.22119141 270.56933594 -685.22119141 270.56933594 -683.05322266 268.69824219 C-682.34552734 268.07820313 -681.63783203 267.45816406 -680.90869141 266.81933594 C-678.86572266 265.26074219 -678.86572266 265.26074219 -675.86572266 264.26074219 C-675.86572266 263.60074219 -675.86572266 262.94074219 -675.86572266 262.26074219 C-674.60791016 260.95605469 -674.60791016 260.95605469 -672.74072266 259.38574219 C-672.01755859 258.77085937 -671.29439453 258.15597656 -670.54931641 257.52246094 C-669.66373047 256.77609375 -668.77814453 256.02972656 -667.86572266 255.26074219 C-666.12104576 253.76745666 -664.37943352 252.27063743 -662.63769531 250.77392578 C-660.30187777 248.76762202 -657.96338459 246.76451954 -655.61914062 244.76806641 C-654.38512706 243.70724773 -653.16102621 242.6348428 -651.94433594 241.55419922 C-651.32155762 241.00489746 -650.6987793 240.4555957 -650.05712891 239.88964844 C-649.49324463 239.3863501 -648.92936035 238.88305176 -648.34838867 238.36450195 C-646.86572266 237.26074219 -646.86572266 237.26074219 -644.86572266 237.26074219 C-644.86572266 236.60074219 -644.86572266 235.94074219 -644.86572266 235.26074219 C-643.06607929 233.7415227 -641.26101933 232.34002372 -639.36572266 230.94824219 C-634.05288264 226.96398288 -628.87060239 222.85271871 -623.74072266 218.63574219 C-618.53010081 214.37138893 -613.26313508 210.2609551 -607.77587891 206.35449219 C-603.42046096 203.22092974 -599.14888155 199.97677631 -594.87353516 196.73510742 C-590.47299435 193.41509655 -585.99570829 190.22315787 -581.47045898 187.07543945 C-578.87147274 185.26474822 -576.28569689 183.43643861 -573.70166016 181.60449219 C-560.05674931 171.97806613 -546.10818174 162.97457464 -531.86572266 154.26074219 C-530.50495768 153.42625008 -529.14426908 152.5916334 -527.78369141 151.75683594 C-525.68034995 150.46642739 -523.57629422 149.1771816 -521.47119141 147.88964844 C-519.02057272 146.3575525 -516.6277527 144.76458817 -514.24072266 143.13574219 C-510.17434943 140.38517895 -505.93730886 138.06544882 -501.60791016 135.75683594 C-499.03486546 134.3530238 -496.5460422 132.8638864 -494.05322266 131.32324219 C-489.59682591 128.61279551 -484.99866031 126.29613393 -480.31518555 124.00488281 C-476.11076891 121.93007863 -472.04505225 119.68288048 -467.99072266 117.32324219 C-455.10851966 109.83912398 -441.55058962 103.62273368 -428.07324219 97.29833984 C-426.11499188 96.37790589 -424.15970383 95.45158367 -422.20556641 94.52246094 C-411.12579076 89.28860976 -399.9005599 84.38616628 -388.67041016 79.48535156 C-386.34842601 78.47150472 -384.02854226 77.45310209 -381.70947266 76.43261719 C-374.70308711 73.37937578 -367.61694478 70.60351719 -360.44604492 67.96630859 C-357.35308362 66.82202629 -354.27288845 65.64959052 -351.19946289 64.45385742 C-338.75250283 59.62052599 -326.20303049 55.27701649 -313.49072266 51.19824219 C-311.58417823 50.58300084 -309.67768463 49.967602 -307.77124023 49.35205078 C-302.4727407 47.64442261 -297.17016794 45.94979844 -291.86572266 44.26074219 C-290.63869629 43.86935059 -289.41166992 43.47795898 -288.14746094 43.07470703 C-262.60926647 34.9774256 -236.71807394 28.57803196 -210.52441406 23.04248047 C-207.15760041 22.32310657 -203.79791746 21.57874621 -200.43994141 20.81933594 C-189.8264925 18.42677427 -179.26035574 16.45515523 -168.48681641 14.94042969 C-164.2893641 14.34314322 -160.15061881 13.58005168 -155.99072266 12.76074219 C-127.24473096 7.19850965 -97.50743729 4.54977402 -68.32202148 2.50337219 C-66.00363327 2.3406228 -63.68543588 2.17513351 -61.36743164 2.00700378 C-40.89461421 0.54214609 -20.52312673 -0.06109832 0 0 Z " fill="#EE2E24" transform="translate(1915.86572265625,14.7392578125)"/>
</svg>
