<?xml version="1.0" standalone="no"?>
<!DOCTYPE svg PUBLIC "-//W3C//DTD SVG 20010904//EN"
 "http://www.w3.org/TR/2001/REC-SVG-20010904/DTD/svg10.dtd">
<svg version="1.0" xmlns="http://www.w3.org/2000/svg"
 width="600.000000pt" height="600.000000pt" viewBox="0 0 600.000000 600.000000"
 preserveAspectRatio="xMidYMid meet">

<g transform="translate(0.000000,600.000000) scale(0.100000,-0.100000)"
fill="#000000" stroke="none">
<path d="M3107 4614 c-13 -13 -8 -311 6 -321 6 -5 48 -15 91 -22 220 -36 444
-152 608 -318 107 -107 159 -179 223 -308 153 -309 163 -647 29 -968 -34 -82
-108 -205 -153 -256 l-36 -41 -270 331 c-148 181 -276 340 -284 353 -13 21
-10 27 48 102 222 286 329 429 325 436 -3 5 -106 8 -229 8 l-223 0 -28 -33
c-16 -18 -99 -124 -184 -235 l-155 -202 -5 733 -5 732 -75 -2 c-98 -2 -285
-56 -424 -122 -455 -214 -769 -637 -842 -1135 -22 -146 -14 -391 16 -521 67
-293 186 -517 384 -723 124 -129 237 -214 386 -291 213 -110 397 -159 630
-168 77 -3 176 0 230 6 173 21 402 89 408 121 2 16 -163 225 -197 248 -15 11
-32 9 -102 -10 -74 -20 -107 -23 -279 -23 -183 0 -201 2 -294 28 -476 133
-804 519 -857 1007 -30 271 54 575 219 796 95 128 253 268 369 328 l33 16 2
-827 3 -828 193 -3 c105 -1 193 -1 194 0 1 2 5 120 8 263 l5 259 453 -554
c249 -305 462 -561 473 -569 18 -12 25 -10 77 25 88 59 290 267 355 365 109
165 188 351 227 537 26 124 36 346 21 473 -81 693 -617 1228 -1316 1314 -28 3
-54 3 -58 -1z"/>
</g>
</svg>
